<svg xmlns="http://www.w3.org/2000/svg" version="1.1" xmlns:xlink="http://www.w3.org/1999/xlink" xmlns:svgjs="http://svgjs.dev/svgjs" width="1500" height="1500" viewBox="0 0 1500 1500"><rect width="1500" height="1500" fill="#ffffff"></rect><g transform="matrix(0.6666666666666666,0,0,0.6666666666666666,249.39393939393938,435.99032258064517)"><svg viewBox="0 0 396 248" data-background-color="#ffffff" preserveAspectRatio="xMidYMid meet" height="939" width="1500" xmlns="http://www.w3.org/2000/svg" xmlns:xlink="http://www.w3.org/1999/xlink"><g id="tight-bounds" transform="matrix(1,0,0,1,0.2400000000000091,0.4000000000000057)"><svg viewBox="0 0 395.52 247.2" height="247.2" width="395.52"><g><svg></svg></g><g><svg viewBox="0 0 395.52 247.2" height="247.2" width="395.52"><g transform="matrix(1,0,0,1,83.90337579396282,47.215199999999996)"><svg viewBox="0 0 227.71324841207434 152.7696" height="152.7696" width="227.71324841207434"><g><svg viewBox="0 0 227.71324841207434 152.7696" height="152.7696" width="227.71324841207434"><g><svg viewBox="0 0 244.43135999999998 163.98554478078395" height="152.7696" width="227.71324841207434"><g><svg viewBox="0 0 244.43135999999998 163.98554478078395" height="163.98554478078395" width="244.43135999999998"><g id="textblocktransform"><svg viewBox="0 0 244.43135999999998 163.98554478078395" height="163.98554478078395" width="244.43135999999998" id="textblock"><g><svg viewBox="0 0 244.43135999999998 94.22249978136387" height="94.22249978136387" width="244.43135999999998"><g transform="matrix(1,0,0,1,0,0)"><svg width="244.43135999999998" viewBox="1.34 -35.4 93.8 36.16" height="94.22249978136387" data-palette-color="#2a2c35"><path d="M31.1-17.36L31.1-3.54Q28.66-1.46 25.66-0.35 22.66 0.76 19.41 0.76L19.41 0.76Q16.92 0.76 14.61 0.11 12.3-0.54 10.3-1.72 8.3-2.91 6.64-4.55 4.98-6.2 3.81-8.22 2.64-10.23 1.99-12.55 1.34-14.87 1.34-17.36L1.34-17.36Q1.34-19.85 1.99-22.14 2.64-24.44 3.81-26.45 4.98-28.47 6.64-30.11 8.3-31.76 10.3-32.93 12.3-34.11 14.61-34.75 16.92-35.4 19.41-35.4L19.41-35.4Q22.66-35.4 25.66-34.29 28.66-33.18 31.1-31.1L31.1-31.1 27.44-25Q25.85-26.61 23.78-27.53 21.7-28.44 19.41-28.44L19.41-28.44Q17.11-28.44 15.1-27.56 13.09-26.68 11.57-25.18 10.06-23.68 9.18-21.67 8.3-19.65 8.3-17.36L8.3-17.36Q8.3-15.04 9.18-13.01 10.06-10.99 11.57-9.47 13.09-7.96 15.1-7.08 17.11-6.2 19.41-6.2L19.41-6.2Q20.73-6.2 21.97-6.52 23.22-6.84 24.34-7.4L24.34-7.4 24.34-17.36 31.1-17.36ZM64.55-17.5L64.55-17.5Q64.55-15.09 63.93-12.85 63.3-10.62 62.16-8.68 61.01-6.74 59.42-5.14 57.83-3.54 55.88-2.39 53.93-1.25 51.69-0.62 49.46 0 47.04 0L47.04 0 36.5 0 36.5-35.01 47.04-35.01Q49.46-35.01 51.69-34.39 53.93-33.76 55.88-32.62 57.83-31.47 59.42-29.87 61.01-28.27 62.16-26.33 63.3-24.39 63.93-22.16 64.55-19.92 64.55-17.5ZM57.54-17.5L57.54-17.5Q57.54-19.68 56.72-21.58 55.91-23.49 54.48-24.91 53.05-26.34 51.13-27.17 49.22-28 47.04-28L47.04-28 43.55-28 43.55-7.01 47.04-7.01Q49.22-7.01 51.13-7.82 53.05-8.64 54.48-10.07 55.91-11.5 56.72-13.42 57.54-15.33 57.54-17.5ZM67.13-24.51L67.13-24.51Q67.13-26.68 67.96-28.59 68.79-30.49 70.22-31.92 71.65-33.35 73.55-34.18 75.46-35.01 77.63-35.01L77.63-35.01 93.7-35.01 93.7-28 77.63-28Q76.9-28 76.26-27.73 75.63-27.47 75.15-26.99 74.68-26.51 74.41-25.88 74.14-25.24 74.14-24.51L74.14-24.51Q74.14-23.78 74.41-23.13 74.68-22.49 75.15-22.01 75.63-21.53 76.26-21.26 76.9-21 77.63-21L77.63-21 84.64-21Q86.81-21 88.73-20.18 90.64-19.36 92.07-17.93 93.5-16.5 94.32-14.59 95.14-12.67 95.14-10.5L95.14-10.5Q95.14-8.33 94.32-6.42 93.5-4.52 92.07-3.09 90.64-1.66 88.73-0.83 86.81 0 84.64 0L84.64 0 69.09 0 69.09-7.01 84.64-7.01Q85.37-7.01 86.01-7.28 86.64-7.54 87.12-8.02 87.59-8.5 87.86-9.13 88.13-9.77 88.13-10.5L88.13-10.5Q88.13-11.23 87.86-11.87 87.59-12.5 87.12-12.98 86.64-13.45 86.01-13.72 85.37-13.99 84.64-13.99L84.64-13.99 77.63-13.99Q75.46-13.99 73.55-14.82 71.65-15.65 70.22-17.08 68.79-18.51 67.96-20.42 67.13-22.34 67.13-24.51Z" opacity="1" transform="matrix(1,0,0,1,0,0)" fill="#000000" class="wordmark-text-0" data-fill-palette-color="primary" id="text-0"></path></svg></g></svg></g><g transform="matrix(1,0,0,1,102.78338688,116.46617063974912)"><svg viewBox="0 0 141.64797312 47.519374141034824" height="47.519374141034824" width="141.64797312"><g transform="matrix(1,0,0,1,0,0)"><svg width="141.64797312" viewBox="2.8 -37.95 147.83999999999997 49.6" height="47.519374141034824" data-palette-color="#2a2c35"><path d="M3.05 0.25L3.05 0.25 2.8-2.2 8.5-3.35 6.45-0.95Q6.6-1.75 6.8-2.9 7-4.05 7.13-5.13 7.25-6.2 7.25-6.75L7.25-6.75 7.25-28.5Q7.25-29.05 7.13-30.1 7-31.15 6.83-32.23 6.65-33.3 6.5-33.85L6.5-33.85 8.5-32 2.9-32.9 3.15-35.5Q4.1-35.45 5.25-35.4 6.4-35.35 7.43-35.3 8.45-35.25 8.9-35.25L8.9-35.25 20.05-35.25Q20.55-35.25 21.75-35.3 22.95-35.35 24.15-35.43 25.35-35.5 25.75-35.5L25.75-35.5 26.7-34.6 27.05-28.15 24.2-27.9Q24.15-28.5 23.98-29.25 23.8-30 23.65-30.55L23.65-30.55Q23.6-30.95 22.93-31.88 22.25-32.8 21.7-33.3L21.7-33.3 23.4-32.25Q22.65-32.3 21.25-32.43 19.85-32.55 18.55-32.55L18.55-32.55 10.25-32.55 12.1-34Q12.1-33.85 11.95-32.63 11.8-31.4 11.68-29.8 11.55-28.2 11.55-27L11.55-27 11.55-8.25Q11.55-6.95 11.65-5.5 11.75-4.05 11.9-2.85 12.05-1.65 12.15-1.15L12.15-1.15 10.2-3.15 16.95-2.65 16.55 0 9.75 0Q9.15 0 8.03 0.05 6.9 0.1 5.6 0.15 4.3 0.2 3.05 0.25ZM23.35-13.2L21-12.9 20.35-17.75 22.2-16.1Q21.8-16.2 20.68-16.3 19.55-16.4 18.35-16.5 17.15-16.6 16.5-16.6L16.5-16.6 9.95-16.6 9.95-19.3 17.5-19.3Q18.6-19.3 19.95-19.6 21.3-19.9 21.95-20.1L21.95-20.1 20.35-18.3 21-23.05 23.2-22.8 23.2-18.6Q23.2-17.25 23.25-15.7 23.3-14.15 23.35-13.2L23.35-13.2ZM31.8 0.25L31.8 0.25 31.55-2.15 37.15-3.3 35.15-1.45Q35.25-1.85 35.42-2.85 35.6-3.85 35.77-4.98 35.95-6.1 35.95-6.7L35.95-6.7 35.95-17.8Q35.95-18.45 35.82-19.48 35.7-20.5 35.52-21.6 35.35-22.7 35.2-23.45L35.2-23.45 37.15-21.15 31.65-22.1 31.9-24.7 39.1-24.7 40.05-23.8Q40-23.05 39.92-21.73 39.85-20.4 39.8-18.95 39.75-17.5 39.75-16.3L39.75-16.3 39.75-8.2Q39.75-6.25 39.9-4.2 40.05-2.15 40.2-1.25L40.2-1.25 38.35-3.1 44-2.6 43.65 0 37.3 0Q36.8 0 35.85 0.05 34.9 0.1 33.82 0.15 32.75 0.2 31.8 0.25ZM37.1-29.6L37.1-29.6Q35.7-29.6 34.95-30.45 34.2-31.3 34.2-32.7L34.2-32.7Q34.2-34.15 34.95-35.02 35.7-35.9 37.1-35.9L37.1-35.9Q38.5-35.9 39.25-35.08 40-34.25 40-32.7L40-32.7Q40-31.3 39.27-30.45 38.55-29.6 37.1-29.6ZM46.39 0.25L46.39 0.25 46.14-2.15 51.74-3.3 49.74-1.45Q49.84-1.85 50.02-2.85 50.2-3.85 50.37-4.98 50.55-6.1 50.55-6.7L50.55-6.7 50.55-30.9Q50.55-31.55 50.42-32.58 50.3-33.6 50.12-34.7 49.95-35.8 49.8-36.55L49.8-36.55 51.74-34.25 46.24-35.45 46.49-37.95 50.95-37.8 53.7-37.8 54.64-36.9Q54.59-36.15 54.52-34.83 54.45-33.5 54.39-32.05 54.34-30.6 54.34-29.4L54.34-29.4 54.34-8.2Q54.34-6.2 54.49-4.17 54.64-2.15 54.8-1.25L54.8-1.25 52.95-3.1 58.59-2.6 58.24 0 51.89 0Q51.39 0 50.45 0.05 49.49 0.1 48.42 0.15 47.34 0.2 46.39 0.25ZM60.99 0.25L60.99 0.25 60.74-2.15 66.34-3.3 64.34-1.45Q64.44-1.85 64.62-2.85 64.79-3.85 64.97-4.98 65.14-6.1 65.14-6.7L65.14-6.7 65.14-30.9Q65.14-31.55 65.02-32.58 64.89-33.6 64.72-34.7 64.54-35.8 64.39-36.55L64.39-36.55 66.34-34.25 60.84-35.45 61.09-37.95 65.54-37.8 68.29-37.8 69.24-36.9Q69.19-36.15 69.12-34.83 69.04-33.5 68.99-32.05 68.94-30.6 68.94-29.4L68.94-29.4 68.94-8.2Q68.94-6.2 69.09-4.17 69.24-2.15 69.39-1.25L69.39-1.25 67.54-3.1 73.19-2.6 72.84 0 66.49 0Q65.99 0 65.04 0.05 64.09 0.1 63.02 0.15 61.94 0.2 60.99 0.25ZM105.04 0.75L105.04 0.75Q98.69 0.75 95.49-3.08 92.29-6.9 92.29-13.3L92.29-13.3 92.29-28.25Q92.29-28.8 92.14-29.93 91.99-31.05 91.81-32.25 91.64-33.45 91.49-34.1L91.49-34.1 93.54-32.05 87.79-32.9 88.04-35.5Q88.99-35.45 90.14-35.4 91.29-35.35 92.31-35.3 93.34-35.25 93.79-35.25L93.79-35.25Q94.69-35.25 96.06-35.3 97.44-35.35 98.79-35.4 100.14-35.45 100.94-35.5L100.94-35.5 101.14-32.65 95.44-32.15 97.29-34.1Q97.24-33.55 97.11-32.3 96.99-31.05 96.89-29.55 96.79-28.05 96.79-26.75L96.79-26.75 96.79-13.3Q96.79-10.1 97.74-7.6 98.69-5.1 100.64-3.68 102.59-2.25 105.49-2.25L105.49-2.25Q108.54-2.25 110.51-3.7 112.49-5.15 113.49-7.65 114.49-10.15 114.49-13.3L114.49-13.3 114.49-28.25Q114.49-28.65 114.39-29.5 114.29-30.35 114.14-31.33 113.99-32.3 113.86-33.08 113.74-33.85 113.69-34.1L113.69-34.1 115.89-32 110.04-32.9 110.29-35.5Q111.69-35.45 113.24-35.35 114.79-35.25 115.54-35.25L115.54-35.25Q117.14-35.25 118.89-35.35 120.64-35.45 122.04-35.5L122.04-35.5 122.24-32.65 116.54-32.15 118.39-34.1Q118.34-33.55 118.21-32.3 118.09-31.05 117.99-29.55 117.89-28.05 117.89-26.75L117.89-26.75 117.89-13.3Q117.89-6.9 114.66-3.08 111.44 0.75 105.04 0.75ZM126.39 11.65L126.39 11.65 126.14 9.2 131.19 8.05 129.19 9.95Q129.28 9.55 129.46 8.55 129.64 7.55 129.81 6.43 129.99 5.3 129.99 4.7L129.99 4.7 129.99-17.8Q129.99-18.45 129.81-19.58 129.64-20.7 129.44-21.83 129.24-22.95 129.14-23.45L129.14-23.45 131.19-21.15 125.69-22.1 125.94-24.7 132.14-24.7 133.09-23.8 133.49-18.95 133.19-19.75Q133.34-21.1 134.49-22.33 135.64-23.55 137.24-24.33 138.84-25.1 140.28-25.1L140.28-25.1Q145.19-25.1 147.91-21.88 150.64-18.65 150.64-12.8L150.64-12.8Q150.64-9 149.14-5.98 147.64-2.95 145.06-1.23 142.49 0.5 139.24 0.5L139.24 0.5Q137.74 0.5 136.14 0.03 134.53-0.45 132.99-1.25L132.99-1.25 133.03-4.8Q134.53-3.55 136.06-2.95 137.59-2.35 138.99-2.35L138.99-2.35Q142.59-2.35 144.54-5.05 146.49-7.75 146.49-12.75L146.49-12.75Q146.49-17.5 144.86-19.93 143.24-22.35 140.14-22.35L140.14-22.35Q137.24-22.35 135.49-20.13 133.74-17.9 133.74-14.3L133.74-14.3 133.74 3.2Q133.74 5.15 133.91 7.2 134.09 9.25 134.24 10.15L134.24 10.15 132.39 8.25 139.09 8.75 138.78 11.4 131.34 11.4Q130.84 11.4 130.01 11.45 129.19 11.5 128.24 11.55 127.29 11.6 126.39 11.65Z" opacity="1" transform="matrix(1,0,0,1,0,0)" fill="#000000" class="slogan-text-1" data-fill-palette-color="secondary" id="text-1"></path></svg></g></svg></g></svg></g></svg></g></svg></g></svg></g></svg></g><path d="M260.344 41.215L260.344 0 13.144 0 13.144 247.2 260.344 247.2 260.344 205.985 252.428 205.985 252.428 239.284 21.06 239.284 21.06 7.916 252.428 7.916 252.428 41.215Z" fill="#000000" stroke="transparent" data-fill-palette-color="tertiary"></path></svg></g><defs></defs></svg><rect width="395.52" height="247.2" fill="none" stroke="none" visibility="hidden"></rect></g></svg></g></svg>